:SAMPLES-PER-SECOND 30
:FULLY-SPECIFIED
:DEGREES
385
root  60.5983 39.6511 19.8272 -171.023 -23.3562 178.049
RightUpLeg  -14.6151 -18.7078 -14.3802
RightLeg  8.70965 -36.657 4.17784
RightFoot  8.08825 -0.0591634 0.669863
RightToes  0.00048216 0.542163 -0.142577
Spine  39.1886 -3.72197 8.20328
Spine1  3.62304 -2.14025 3.687
HEad  -27.9204 27.2291 -32.9937
LeftShoulder1  10.1656 -19.0769 -38.7855
LeftArm  5.69441 -37.2165 -52.6449
LeftForeArm  10.3594 -35.0301 -7.26657
LeftHand  -0.25398 0.0180481 5.50724
RightShoulder  4.3931 10.3067 25.7116
RightArm  -20.9092 13.9113 24.5407
RightForeArm  -22.0973 51.176 15.5201
RightHand  -0.182899 -8.16747 4.90356
LeftUpLeg  -38.595 47.8347 -14.9174
LeftLeg  17.6418 6.94603 2.63301
LeftFoot  -2.89733 -0.0605137 1.03102
LeftToes  1.06246e-005 4.65856e-005 -8.18501e-006
386
root  59.6877 39.5706 19.7098 -171.64 -25.3882 179.324
RightUpLeg  -11.7765 -18.0488 -15.0043
RightLeg  5.99462 -38.7205 5.36129
RightFoot  8.9357 -0.385273 2.50076
RightToes  0.00048216 0.542163 -0.142577
Spine  35.8965 -4.25356 8.83005
Spine1  3.68891 -2.34952 2.08828
HEad  -26.7471 28.4945 -31.5965
LeftShoulder1  9.67742 -18.8188 -37.1931
LeftArm  8.77349 -36.2226 -54.8846
LeftForeArm  9.03198 -33.0398 -6.80987
LeftHand  -0.25398 0.0180481 5.50724
RightShoulder  4.7299 10.583 27.557
RightArm  -19.945 10.5494 23.2627
RightForeArm  -23.1862 52.0139 16.0586
RightHand  -0.211526 -8.76338 4.82288
LeftUpLeg  -37.9494 49.2402 -14.4902
LeftLeg  15.9317 12.6603 2.94946
LeftFoot  -4.03371 -0.121057 2.26134
LeftToes  1.06246e-005 4.65856e-005 -8.18501e-006
387
root  58.6686 39.475 19.5832 -172.298 -27.2234 -179.932
RightUpLeg  -8.84339 -17.84 -16.1369
RightLeg  3.52401 -39.7485 6.37496
RightFoot  9.91847 -0.628055 3.70579
RightToes  0.00048216 0.542163 -0.142577
Spine  33.0677 -3.97549 8.03474
Spine1  3.69017 -2.48319 2.16238
HEad  -25.2748 29.5837 -30.6013
LeftShoulder1  9.58756 -18.4621 -37.4815
LeftArm  13.0069 -35.8883 -56.7186
LeftForeArm  6.61209 -30.1196 -6.20434
LeftHand  -0.25398 0.0180481 5.50724
RightShoulder  4.75812 10.5016 27.9613
RightArm  -19.1485 6.77473 22.6361
RightForeArm  -22.7025 53.0018 16.6162
RightHand  -0.293183 -9.41275 6.15574
LeftUpLeg  -35.0831 48.1066 -12.1421
LeftLeg  15.6042 18.2045 3.09064
LeftFoot  -4.54173 -0.136958 2.76014
LeftToes  1.06246e-005 4.65856e-005 -8.18501e-006
388
root  57.5158 39.3396 19.4459 -172.749 -29.2779 179.97
RightUpLeg  -6.0413 -18.3482 -18.2958
RightLeg  2.75237 -40.8782 6.42386
RightFoot  10.9798 -0.933929 5.11295
RightToes  0.00048216 0.542163 -0.142577
Spine  30.5688 -3.73055 6.29963
Spine1  3.43109 -2.87668 2.44279
HEad  -23.649 30.8277 -29.0346
LeftShoulder1  9.44169 -17.9622 -37.8103
LeftArm  18.1369 -35.5955 -58.9889
LeftForeArm  3.49137 -26.5879 -5.48961
LeftHand  -0.25398 0.0180481 5.50724
RightShoulder  4.85548 10.629 28.3534
RightArm  -18.6627 2.65224 21.8288
RightForeArm  -21.8955 53.879 17.1161
RightHand  -0.380351 -9.84578 7.72365
LeftUpLeg  -33.7679 47.3153 -12.6599
LeftLeg  16.629 18.7648 4.28472
LeftFoot  -4.46187 -0.178685 3.4116
LeftToes  1.06246e-005 4.65856e-005 -8.18501e-006
389
root  56.2565 39.152 19.3014 -173.084 -32.1703 179.381
RightUpLeg  -3.52348 -19.0474 -20.9579
RightLeg  4.58341 -42.152 4.44945
RightFoot  10.4851 -1.2515 6.89375
RightToes  0.00048216 0.542163 -0.142577
Spine  28.1846 -3.74345 4.44872
Spine1  3.06312 -3.52423 2.794
HEad  -21.5439 31.4395 -26.4261
LeftShoulder1  9.33747 -17.758 -37.7485
LeftArm  23.1914 -35.2931 -61.7499
LeftForeArm  0.739385 -22.7896 -5.12272
LeftHand  -0.25398 0.0180481 5.50724
RightShoulder  4.97258 10.7106 28.9977
RightArm  -18.3153 -1.943 20.6522
RightForeArm  -22.8957 55.095 17.986
RightHand  -0.350704 -9.94284 6.75128
LeftUpLeg  -33.6311 46.0838 -14.7675
LeftLeg  18.9898 16.2189 6.25941
LeftFoot  -4.83282 -0.229806 4.57149
LeftToes  1.06246e-005 4.65856e-005 -8.18501e-006
390
root  54.962 38.9676 19.1832 -173.893 -35.8107 179.005
RightUpLeg  -1.44871 -18.8469 -22.7847
RightLeg  8.21952 -40.3016 0.614422
RightFoot  6.69582 -1.04793 6.80351
RightToes  0.00048216 0.542163 -0.142577
Spine  26.1346 -3.89336 3.13485
Spine1  3.02753 -4.16805 3.32661
HEad  -19.0804 30.8378 -23.3672
LeftShoulder1  9.4661 -17.9326 -37.9785
LeftArm  25.0401 -35.4838 -64.2527
LeftForeArm  1.74098 -18.9386 -6.40527
LeftHand  -0.25398 0.0180481 5.50724
RightShoulder  4.93382 10.4037 29.5017
RightArm  -18.0188 -6.78096 19.5581
RightForeArm  -25.4453 57.0001 19.5311
RightHand  -0.201916 -9.80439 3.25623
LeftUpLeg  -30.8634 41.1698 -13.3877
LeftLeg  22.1242 17.0101 7.80375
LeftFoot  -6.57349 -0.208552 5.99257
LeftToes  1.06246e-005 4.65856e-005 -8.18501e-006
